<svg width="92" height="21" viewBox="0 0 92 21" fill="none" xmlns="http://www.w3.org/2000/svg">
<path d="M16.6699 4.9082C16.1816 4.9082 15.6543 4.94727 15.0879 5.02539C14.5215 5.08398 13.9648 5.15234 13.418 5.23047C13.0273 5.28906 12.6465 5.33789 12.2754 5.37695C11.9238 5.41602 11.6016 5.44531 11.3086 5.46484C11.1719 5.89453 11.0352 6.27539 10.8984 6.60742C10.7617 6.93945 10.6152 7.26172 10.459 7.57422C10.3027 7.90625 10.1562 8.24805 10.0195 8.59961C9.90234 8.93164 9.78516 9.29297 9.66797 9.68359C9.47266 9.99609 9.30664 10.2891 9.16992 10.5625C9.05273 10.8164 8.95508 11.1094 8.87695 11.4414C8.64258 11.7344 8.4668 12.0469 8.34961 12.3789C8.23242 12.6914 8.14453 12.9648 8.08594 13.1992L7.96875 13.5508C7.85156 13.668 7.7832 13.7656 7.76367 13.8438C7.74414 13.9023 7.69531 13.9609 7.61719 14.0195C7.59766 14.2344 7.5293 14.4492 7.41211 14.6641C7.37305 14.7617 7.34375 14.8594 7.32422 14.957C7.30469 15.0352 7.29492 15.0938 7.29492 15.1328C7.29492 15.3281 7.24609 15.4551 7.14844 15.5137C7.16797 15.6113 7.16797 15.7188 7.14844 15.8359C7.12891 15.9336 7.10938 16.0312 7.08984 16.1289C7.03125 16.3633 7.01172 16.5488 7.03125 16.6855C7.08984 16.7637 7.13867 16.832 7.17773 16.8906C7.23633 16.9492 7.27539 17.0273 7.29492 17.125C7.41211 17.2031 7.5 17.252 7.55859 17.2715C7.63672 17.3301 7.75391 17.3984 7.91016 17.4766L8.17383 17.7695C8.27148 18.3359 8.18359 18.7852 7.91016 19.1172C7.61719 19.4883 7.11914 19.6738 6.41602 19.6738H6.06445C5.9668 19.5762 5.9082 19.498 5.88867 19.4395C5.73242 19.3809 5.60547 19.332 5.50781 19.293C5.41016 19.2539 5.32227 19.1758 5.24414 19.0586C4.99023 18.9414 4.78516 18.8438 4.62891 18.7656L4.36523 18.6191C4.36523 18.4043 4.36523 18.2871 4.36523 18.2676C4.22852 18.0918 4.12109 17.8965 4.04297 17.6816C3.98438 17.4668 3.93555 17.252 3.89648 17.0371C3.85742 16.8613 3.80859 16.6953 3.75 16.5391C3.71094 16.3828 3.65234 16.2461 3.57422 16.1289C3.53516 14.9961 3.64258 14.0391 3.89648 13.2578C4.15039 12.4766 4.41406 11.7246 4.6875 11.002C4.84375 10.6113 5 10.2207 5.15625 9.83008C5.3125 9.41992 5.44922 9 5.56641 8.57031L5.83008 8.27734C5.9668 7.96484 6.07422 7.71094 6.15234 7.51562C6.25 7.30078 6.34766 7.08594 6.44531 6.87109C6.50391 6.73438 6.55273 6.60742 6.5918 6.49023C6.65039 6.35352 6.69922 6.23633 6.73828 6.13867C6.62109 6.13867 6.51367 6.14844 6.41602 6.16797C6.31836 6.16797 6.2207 6.17773 6.12305 6.19727C6.00586 6.2168 5.89844 6.23633 5.80078 6.25586C5.70312 6.25586 5.60547 6.25586 5.50781 6.25586C5.37109 6.25586 5.27344 6.24609 5.21484 6.22656C5 6.32422 4.76562 6.37305 4.51172 6.37305H4.21875C4.16016 6.37305 4.10156 6.37305 4.04297 6.37305C4.00391 6.35352 3.96484 6.34375 3.92578 6.34375C3.73047 6.34375 3.57422 6.37305 3.45703 6.43164C3.22266 6.43164 2.99805 6.43164 2.7832 6.43164H2.49023C2.45117 6.43164 2.40234 6.44141 2.34375 6.46094C2.28516 6.46094 2.23633 6.46094 2.19727 6.46094C2.06055 6.46094 1.91406 6.45117 1.75781 6.43164C1.60156 6.39258 1.43555 6.32422 1.25977 6.22656C1.02539 5.91406 0.869141 5.74805 0.791016 5.72852L0.527344 5.37695C0.507812 5.25977 0.478516 5.15234 0.439453 5.05469C0.400391 4.9375 0.361328 4.81055 0.322266 4.67383C0.244141 4.47852 0.166016 4.27344 0.0878906 4.05859C0.0292969 3.82422 0 3.55078 0 3.23828C0.0195313 3.08203 0.0585938 2.96484 0.117188 2.88672C0.175781 2.80859 0.224609 2.74023 0.263672 2.68164L0.351562 2.24219L0.732422 2.27148H1.55273C2.17773 2.27148 2.8125 2.25195 3.45703 2.21289C4.10156 2.1543 4.76562 2.0957 5.44922 2.03711C5.83984 1.99805 6.23047 1.95898 6.62109 1.91992C7.03125 1.88086 7.45117 1.8418 7.88086 1.80273C7.95898 1.62695 8.03711 1.46094 8.11523 1.30469L8.4082 1.1582C8.75977 1.13867 9.00391 1.1875 9.14062 1.30469C9.29688 1.40234 9.42383 1.5 9.52148 1.59766C9.95117 1.55859 10.3809 1.51953 10.8105 1.48047C11.2598 1.42188 11.709 1.35352 12.1582 1.27539C12.8223 1.17773 13.4863 1.08984 14.1504 1.01172C14.834 0.933594 15.4883 0.894531 16.1133 0.894531C16.3867 0.894531 16.6504 0.904297 16.9043 0.923828C17.1582 0.943359 17.3926 0.972656 17.6074 1.01172L17.9004 1.2168C17.959 1.33398 18.0371 1.44141 18.1348 1.53906C18.252 1.63672 18.3691 1.73438 18.4863 1.83203C18.7207 2.04688 18.9551 2.30078 19.1895 2.59375C19.4238 2.88672 19.5117 3.31641 19.4531 3.88281C19.2969 4.11719 19.1797 4.25391 19.1016 4.29297L18.8379 4.64453L18.5449 4.61523C18.4277 4.61523 18.3203 4.63477 18.2227 4.67383C18.125 4.69336 18.0273 4.72266 17.9297 4.76172C17.8516 4.80078 17.7734 4.83984 17.6953 4.87891C17.6172 4.89844 17.5293 4.91797 17.4316 4.9375C17.2559 4.9375 17.1094 4.9375 16.9922 4.9375C16.8945 4.91797 16.7871 4.9082 16.6699 4.9082ZM30.8789 19.3809C30.1953 19.0684 29.6484 18.6094 29.2383 18.0039C28.8477 17.3984 28.457 16.7246 28.0664 15.9824C28.0078 15.8652 27.9492 15.748 27.8906 15.6309C27.832 15.5137 27.7734 15.4062 27.7148 15.3086L27.3047 14.5469L27.0703 14.0781L26.7188 14.4004L26.1914 14.8691L25.8984 15.1621C25.3906 15.6309 24.873 16.0996 24.3457 16.5684C23.8379 17.0176 23.291 17.4277 22.7051 17.7988C22.1387 18.1504 21.5332 18.4434 20.8887 18.6777C20.2637 18.8926 19.5801 19.0098 18.8379 19.0293L18.1934 18.707C17.8223 18.5117 17.5098 18.3359 17.2559 18.1797C17.002 18.0234 16.709 17.7793 16.377 17.4473C16.2793 17.2715 16.1914 17.1055 16.1133 16.9492C16.0547 16.793 15.9863 16.6367 15.9082 16.4805C15.6934 16.0898 15.5176 15.7383 15.3809 15.4258C15.2441 15.1133 15.1074 14.7617 14.9707 14.3711C15.0293 14.0977 15.1172 13.6387 15.2344 12.9941C15.3516 12.3301 15.4883 11.6074 15.6445 10.8262C15.8203 10.0449 15.9961 9.26367 16.1719 8.48242C16.3672 7.68164 16.5625 6.98828 16.7578 6.40234C16.9336 5.89453 17.1289 5.35742 17.3438 4.79102C17.5781 4.22461 17.8223 3.70703 18.0762 3.23828C18.3496 2.75 18.6426 2.33984 18.9551 2.00781C19.2676 1.65625 19.5996 1.45117 19.9512 1.39258C20.0488 1.5293 20.1562 1.62695 20.2734 1.68555C20.3906 1.74414 20.498 1.79297 20.5957 1.83203C20.8691 2.22266 21.1328 2.55469 21.3867 2.82812C21.6602 3.10156 21.9727 3.375 22.3242 3.64844C22.2266 4.13672 22.0801 4.68359 21.8848 5.28906C21.709 5.875 21.5137 6.4707 21.2988 7.07617C21.1035 7.66211 20.9082 8.23828 20.7129 8.80469C20.5176 9.37109 20.3613 9.85938 20.2441 10.2695C20.127 10.6016 20.0293 10.9727 19.9512 11.3828C19.7754 12.1055 19.6094 13.0918 19.4531 14.3418C19.6875 14.2832 19.9414 14.1562 20.2148 13.9609C20.4883 13.7656 20.752 13.5605 21.0059 13.3457C21.2988 13.1113 21.5918 12.8477 21.8848 12.5547C22.2559 12.1836 22.5684 11.8418 22.8223 11.5293C23.0762 11.2168 23.3105 10.8945 23.5254 10.5625C23.7598 10.2305 23.9941 9.86914 24.2285 9.47852C24.4629 9.06836 24.7461 8.58984 25.0781 8.04297C25.3711 7.57422 25.6738 7.07617 25.9863 6.54883C26.3184 6.00195 26.6406 5.48438 26.9531 4.99609C27.2852 4.48828 27.6074 4.0293 27.9199 3.61914C28.2324 3.20898 28.5156 2.88672 28.7695 2.65234C28.9258 2.84766 29.1211 3.0332 29.3555 3.20898C29.6094 3.38477 29.873 3.52148 30.1465 3.61914C30.2637 3.79492 30.3711 3.96094 30.4688 4.11719C30.5859 4.25391 30.6934 4.38086 30.791 4.49805C30.9082 4.67383 31.0156 4.83984 31.1133 4.99609C31.2305 5.15234 31.3379 5.30859 31.4355 5.46484C31.416 5.60156 31.3867 5.77734 31.3477 5.99219C31.3086 6.20703 31.2598 6.44141 31.2012 6.69531C31.1621 6.94922 31.1133 7.21289 31.0547 7.48633C30.9961 7.74023 30.9375 7.98438 30.8789 8.21875C30.7227 8.96094 30.6055 9.51758 30.5273 9.88867C30.4492 10.2598 30.3906 10.5527 30.3516 10.7676C30.332 10.9824 30.3125 11.168 30.293 11.3242C30.293 11.4609 30.293 11.6562 30.293 11.9102C30.2734 12.1055 30.2832 12.3008 30.3223 12.4961C30.3418 12.6719 30.3809 12.8574 30.4395 13.0527C30.498 13.248 30.5762 13.4238 30.6738 13.5801L31.8457 12.6719C32.1777 12.418 32.4902 12.0762 32.7832 11.6465C33.0957 11.1973 33.3887 10.6895 33.6621 10.123C33.9551 9.53711 34.2383 8.90234 34.5117 8.21875C34.7852 7.53516 35.0586 6.8418 35.332 6.13867C35.7422 5.10352 36.1523 4.09766 36.5625 3.12109C36.9922 2.14453 37.4023 1.39258 37.793 0.865234C38.2227 1.13867 38.5938 1.42188 38.9062 1.71484C39.2383 1.98828 39.5215 2.29102 39.7559 2.62305C39.9902 2.95508 40.1758 3.33594 40.3125 3.76562C40.4688 4.19531 40.5762 4.70312 40.6348 5.28906C40.2832 5.97266 39.9414 6.67578 39.6094 7.39844C39.2969 8.12109 38.9941 8.84375 38.7012 9.56641C38.3105 10.5039 37.9004 11.4414 37.4707 12.3789C37.0605 13.3164 36.6016 14.2148 36.0938 15.0742C35.5859 15.9141 35.0195 16.6953 34.3945 17.418C33.7695 18.1211 33.0469 18.7168 32.2266 19.2051C32.0117 19.1465 31.8262 19.1172 31.6699 19.1172C31.3574 19.1172 31.0938 19.2051 30.8789 19.3809ZM54.375 10.2695C54.668 10.3086 54.873 10.377 54.9902 10.4746C55.127 10.5723 55.2148 10.6992 55.2539 10.8555C55.3125 10.9922 55.332 11.1484 55.3125 11.3242C55.293 11.5 55.2832 11.6758 55.2832 11.8516C54.7949 12.1836 54.1211 12.418 53.2617 12.5547C52.4023 12.6719 51.5039 12.7598 50.5664 12.8184C49.6289 12.8574 48.7207 12.877 47.8418 12.877C46.9629 12.877 46.2695 12.9062 45.7617 12.9648C44.707 13.082 43.8867 13.1992 43.3008 13.3164C42.7344 13.4141 42.3438 13.5117 42.1289 13.6094C41.7578 13.5898 41.4648 13.5215 41.25 13.4043C41.0352 13.2871 40.8594 13.1504 40.7227 12.9941C40.5859 12.8184 40.4688 12.623 40.3711 12.4082C40.2734 12.1934 40.1562 11.9688 40.0195 11.7344C40.0977 11.5781 40.1172 11.3535 40.0781 11.0605C40.0391 10.7676 39.9219 10.543 39.7266 10.3867C39.8828 10.3672 40 10.2598 40.0781 10.0645C40.1562 9.84961 40.1562 9.69336 40.0781 9.5957C40.3906 9.51758 40.7227 9.46875 41.0742 9.44922C41.4453 9.41016 41.8066 9.38086 42.1582 9.36133C42.5098 9.3418 42.8418 9.3125 43.1543 9.27344C43.4863 9.21484 43.7695 9.12695 44.0039 9.00977C44.9805 8.99023 45.9863 8.96094 47.0215 8.92188C48.0762 8.88281 49.0625 8.84375 49.9805 8.80469C50.3125 8.90234 50.7031 8.96094 51.1523 8.98047C51.6016 8.98047 52.041 9.00977 52.4707 9.06836C52.9004 9.10742 53.291 9.21484 53.6426 9.39062C53.9941 9.56641 54.2383 9.85938 54.375 10.2695ZM62.1387 15.9531C61.9238 16.7344 61.7285 17.3301 61.5527 17.7402C61.3965 18.1309 61.1523 18.541 60.8203 18.9707C60.5664 18.9316 60.3906 18.9609 60.293 19.0586C60.1953 19.1562 60.0879 19.2441 59.9707 19.3223C59.7949 19.3613 59.668 19.3613 59.5898 19.3223C59.5117 19.2832 59.4434 19.2344 59.3848 19.1758C59.3262 19.1367 59.248 19.0879 59.1504 19.0293C59.0723 18.9902 58.9453 18.9707 58.7695 18.9707C58.7305 18.8145 58.6816 18.668 58.623 18.5312C58.584 18.3945 58.457 18.3457 58.2422 18.3848C58.2812 18.2285 58.291 18.1016 58.2715 18.0039C58.252 17.8867 58.2227 17.7891 58.1836 17.7109C58.1641 17.6133 58.1445 17.5254 58.125 17.4473C58.1055 17.3496 58.1152 17.2324 58.1543 17.0957C58.0566 17.0957 57.9785 17.0273 57.9199 16.8906C57.8613 16.7539 57.793 16.6172 57.7148 16.4805C57.7734 16.1289 57.832 15.7969 57.8906 15.4844C57.9492 15.1719 58.0176 14.8789 58.0957 14.6055C58.1934 14.332 58.2715 14.0586 58.3301 13.7852C58.3887 13.5117 58.3594 13.2285 58.2422 12.9355C58.3203 12.9941 58.3789 12.9844 58.418 12.9062C58.457 12.8086 58.4863 12.6914 58.5059 12.5547C58.5254 12.3984 58.5352 12.252 58.5352 12.1152C58.5352 11.959 58.5254 11.832 58.5059 11.7344C58.7012 11.2266 58.8574 10.709 58.9746 10.1816C59.1113 9.63477 59.2285 9.09766 59.3262 8.57031C59.4434 8.04297 59.5605 7.52539 59.6777 7.01758C59.7949 6.50977 59.9512 6.04102 60.1465 5.61133C60.3613 5.57227 60.5957 5.60156 60.8496 5.69922C61.123 5.77734 61.2891 5.88477 61.3477 6.02148C61.8555 5.63086 62.3047 5.16211 62.6953 4.61523C63.0859 4.04883 63.4863 3.50195 63.8965 2.97461C64.3066 2.44727 64.7559 1.97852 65.2441 1.56836C65.752 1.1582 66.3867 0.914062 67.1484 0.835938C67.5391 1.12891 67.9688 1.43164 68.4375 1.74414C68.9258 2.03711 69.3262 2.42773 69.6387 2.91602C69.7949 2.99414 69.9219 3.08203 70.0195 3.17969C70.1367 3.25781 70.2734 3.3457 70.4297 3.44336V3.79492C70.6641 4.00977 70.8496 4.26367 70.9863 4.55664C71.1426 4.83008 71.2793 5.13281 71.3965 5.46484C71.5137 5.77734 71.6309 6.09961 71.748 6.43164C71.8652 6.74414 72.002 7.04688 72.1582 7.33984C72.1191 7.4375 72.0996 7.52539 72.0996 7.60352C72.0996 7.66211 72.1094 7.73047 72.1289 7.80859C72.168 7.88672 72.1973 7.96484 72.2168 8.04297C72.2363 8.12109 72.2363 8.22852 72.2168 8.36523C72.1582 9.22461 71.875 9.91797 71.3672 10.4453C70.8789 10.9727 70.2832 11.4121 69.5801 11.7637C68.877 12.0957 68.125 12.3789 67.3242 12.6133C66.5234 12.8477 65.8008 13.1016 65.1562 13.375C65.1562 13.4531 65.1855 13.4922 65.2441 13.4922C65.3223 13.4922 65.3516 13.541 65.332 13.6387C65.8008 13.9316 66.1719 14.166 66.4453 14.3418C66.7188 14.5176 66.9727 14.6641 67.207 14.7812C67.4609 14.8984 67.7246 15.0059 67.998 15.1035C68.291 15.1816 68.6914 15.2793 69.1992 15.3965C69.707 15.5137 70.0977 15.6113 70.3711 15.6895C70.6641 15.748 70.9277 15.8066 71.1621 15.8652C71.3965 15.9043 71.6309 15.9434 71.8652 15.9824C72.1191 16.002 72.4707 16.0312 72.9199 16.0703C73.0957 16.2461 73.2422 16.4609 73.3594 16.7148C73.4961 16.9492 73.584 17.1934 73.623 17.4473C73.6621 17.6816 73.6719 17.916 73.6523 18.1504C73.6328 18.3652 73.5645 18.541 73.4473 18.6777C73.4668 18.7363 73.5059 18.7656 73.5645 18.7656C73.6426 18.7461 73.7207 18.7461 73.7988 18.7656C73.6816 18.8438 73.584 18.9414 73.5059 19.0586C73.4277 19.1758 73.3496 19.293 73.2715 19.4102C73.1934 19.5273 73.1055 19.625 73.0078 19.7031C72.9102 19.8008 72.7734 19.8594 72.5977 19.8789C71.9922 20.1133 71.2305 20.123 70.3125 19.9082C69.3945 19.7129 68.2324 19.3418 66.8262 18.7949C66.123 18.5215 65.5469 18.2871 65.0977 18.0918C64.668 17.877 64.2871 17.6719 63.9551 17.4766C63.6426 17.2617 63.3496 17.0371 63.0762 16.8027C62.8223 16.5684 62.5098 16.2852 62.1387 15.9531ZM66.3281 5.9043C66.1133 6.2168 65.8691 6.5 65.5957 6.75391C65.3418 7.00781 65.0879 7.27148 64.834 7.54492C64.5996 7.79883 64.3848 8.0918 64.1895 8.42383C63.9941 8.73633 63.8574 9.10742 63.7793 9.53711C64.4629 9.45898 65.1758 9.27344 65.918 8.98047C66.6602 8.66797 67.3633 8.375 68.0273 8.10156C67.9492 7.49609 67.7344 7.00781 67.3828 6.63672C67.0508 6.26562 66.6992 6.02148 66.3281 5.9043ZM79.6582 13.668C79.4824 13.707 79.3555 13.8145 79.2773 13.9902C79.1992 14.1465 79.1211 14.3125 79.043 14.4883C78.9844 14.6641 78.916 14.8301 78.8379 14.9863C78.7793 15.123 78.6816 15.1914 78.5449 15.1914C78.5254 15.3477 78.4668 15.4844 78.3691 15.6016C78.291 15.7188 78.2129 15.8457 78.1348 15.9824C78.0566 16.0996 77.998 16.2363 77.959 16.3926C77.9199 16.5293 77.9395 16.6953 78.0176 16.8906C77.8613 17.0078 77.7637 17.1738 77.7246 17.3887C77.6855 17.6035 77.6367 17.8086 77.5781 18.0039C77.5391 18.1992 77.4609 18.3652 77.3438 18.502C77.2266 18.6387 77.0117 18.6973 76.6992 18.6777C76.6406 18.7559 76.6309 18.8047 76.6699 18.8242C76.709 18.8438 76.7383 18.9121 76.7578 19.0293C76.543 18.9902 76.377 19 76.2598 19.0586C76.1621 19.1367 76.0352 19.1855 75.8789 19.2051C75.5078 19.0879 75.1953 18.8828 74.9414 18.5898C74.707 18.2969 74.4922 17.9746 74.2969 17.623C74.1211 17.252 73.9551 16.8809 73.7988 16.5098C73.6621 16.1387 73.5254 15.8164 73.3887 15.543C73.4473 15.3281 73.457 15.123 73.418 14.9277C73.3789 14.7129 73.3105 14.5371 73.2129 14.4004C74.1699 12.3691 75.2148 10.2012 76.3477 7.89648C77.4805 5.5918 78.5547 3.31641 79.5703 1.07031C80.0195 1.24609 80.459 1.45117 80.8887 1.68555C81.3379 1.90039 81.7383 2.1543 82.0898 2.44727C82.4609 2.74023 82.7734 3.08203 83.0273 3.47266C83.2812 3.84375 83.4473 4.26367 83.5254 4.73242C83.4863 4.84961 83.4375 4.89844 83.3789 4.87891C83.3398 4.83984 83.3008 4.84961 83.2617 4.9082C83.3398 5.00586 83.3789 5.07422 83.3789 5.11328C83.3984 5.15234 83.3984 5.19141 83.3789 5.23047C83.3789 5.26953 83.3789 5.32812 83.3789 5.40625C83.3789 5.46484 83.4082 5.55273 83.4668 5.66992C83.3887 5.65039 83.3301 5.66016 83.291 5.69922C83.2715 5.73828 83.2129 5.73828 83.1152 5.69922C83.1934 5.91406 83.2129 6.08984 83.1738 6.22656C83.1543 6.36328 83.1152 6.49023 83.0566 6.60742C82.998 6.70508 82.9492 6.82227 82.9102 6.95898C82.8711 7.07617 82.8809 7.23242 82.9395 7.42773C82.8809 7.42773 82.832 7.44727 82.793 7.48633C82.7734 7.50586 82.7539 7.53516 82.7344 7.57422C82.7148 7.59375 82.6855 7.62305 82.6465 7.66211C82.627 7.68164 82.5879 7.68164 82.5293 7.66211C82.5879 8.0918 82.6074 8.52148 82.5879 8.95117C82.5684 9.38086 82.5488 9.82031 82.5293 10.2695C82.5293 10.6992 82.5391 11.1582 82.5586 11.6465C82.5781 12.1152 82.6465 12.6035 82.7637 13.1113C83.4668 12.7012 84.0234 12.1738 84.4336 11.5293C84.8633 10.8848 85.2051 10.1621 85.459 9.36133C85.7324 8.56055 85.9375 7.70117 86.0742 6.7832C86.2109 5.86523 86.3574 4.92773 86.5137 3.9707C86.6895 3.79492 86.8262 3.58008 86.9238 3.32617C87.0215 3.07227 87.1094 2.80859 87.1875 2.53516C87.2656 2.24219 87.3438 1.95898 87.4219 1.68555C87.5 1.39258 87.5977 1.12891 87.7148 0.894531C88.0078 0.933594 88.252 1.03125 88.4473 1.1875C88.6621 1.32422 88.8574 1.48047 89.0332 1.65625C89.209 1.8125 89.3945 1.96875 89.5898 2.125C89.7852 2.26172 90.0293 2.34961 90.3223 2.38867C90.5566 2.7207 90.7715 3.04297 90.9668 3.35547C91.1621 3.66797 91.2891 4 91.3477 4.35156C91.25 4.50781 91.1719 4.68359 91.1133 4.87891C91.0742 5.07422 91.0254 5.26953 90.9668 5.46484C90.9082 5.66016 90.8301 5.8457 90.7324 6.02148C90.6348 6.17773 90.498 6.31445 90.3223 6.43164C90.2637 6.93945 90.1855 7.4082 90.0879 7.83789C90.0098 8.24805 89.9219 8.6582 89.8242 9.06836C89.7461 9.47852 89.6777 9.9082 89.6191 10.3574C89.5605 10.7871 89.541 11.2656 89.5605 11.793C89.4043 12.2422 89.2383 12.7207 89.0625 13.2285C88.8867 13.7363 88.75 14.1953 88.6523 14.6055C88.3398 14.8594 88.0957 15.1621 87.9199 15.5137C87.7441 15.8652 87.5586 16.2168 87.3633 16.5684C87.2852 16.6465 87.2363 16.666 87.2168 16.627C87.1973 16.5879 87.1289 16.5586 87.0117 16.5391C87.0312 16.6172 87.0312 16.6758 87.0117 16.7148C86.9922 16.7539 86.9629 16.793 86.9238 16.832C86.9043 16.8516 86.8848 16.8906 86.8652 16.9492C86.8652 17.0078 86.8848 17.0859 86.9238 17.1836C86.6504 17.3008 86.4062 17.4668 86.1914 17.6816C85.9766 17.8965 85.7422 18.0918 85.4883 18.2676C85.2539 18.4434 84.9609 18.5605 84.6094 18.6191C84.2773 18.6777 83.8379 18.6094 83.291 18.4141C82.4902 17.8281 81.7773 17.1543 81.1523 16.3926C80.5469 15.6309 80.0488 14.7227 79.6582 13.668Z" fill="white"/>
</svg>
